<svg width="147" height="31" viewBox="0 0 147 31" fill="none" xmlns="http://www.w3.org/2000/svg">
<path d="M7.96875 23.1641C7.34766 23.1641 6.84375 23.0234 6.45703 22.7188C6.07031 22.4141 5.74219 21.875 5.48438 21.1016L0.84375 7.77734C0.820312 7.70703 0.796875 7.625 0.785156 7.55469C0.761719 7.48438 0.761719 7.40234 0.761719 7.33203C0.761719 7.09766 0.832031 6.875 0.984375 6.67578C1.125 6.48828 1.3125 6.33594 1.53516 6.23047C1.75781 6.13672 1.99219 6.07812 2.23828 6.07812C2.53125 6.07812 2.80078 6.16016 3.04688 6.3125C3.28125 6.47656 3.45703 6.71094 3.5625 7.01562L7.96875 20.0703L12.3633 7.01562C12.3984 6.89844 12.457 6.78125 12.5273 6.67578C12.5977 6.57031 12.668 6.47656 12.7617 6.40625C12.8438 6.33594 12.9375 6.26562 13.043 6.21875C13.1367 6.17188 13.2422 6.13672 13.3594 6.11328C13.4648 6.08984 13.5703 6.07812 13.6875 6.07812C14.0742 6.07812 14.4141 6.19531 14.7188 6.42969C15.0234 6.66406 15.1758 6.96875 15.1758 7.33203C15.1758 7.48438 15.1406 7.63672 15.0938 7.77734L10.4531 21.1016C10.1836 21.875 9.85547 22.4141 9.46875 22.7188C9.08203 23.0234 8.57812 23.1641 7.96875 23.1641ZM18.7852 23C18.4336 23 18.1289 22.8945 17.8828 22.6719C17.6367 22.4492 17.5195 22.1328 17.5195 21.7227V12.5703C17.5195 12.1719 17.6484 11.8672 17.9062 11.6328C18.1641 11.4102 18.4688 11.293 18.8203 11.293C19.1602 11.293 19.4531 11.4102 19.7109 11.6328C19.9688 11.8672 20.0977 12.1719 20.0977 12.5703V21.7227C20.0977 22.1211 19.957 22.4258 19.6992 22.6602C19.4414 22.8945 19.1367 23 18.7852 23ZM18.7969 8.84375C18.3281 8.84375 17.9531 8.71484 17.6719 8.44531C17.3906 8.17578 17.25 7.8125 17.25 7.36719C17.25 6.93359 17.3906 6.58203 17.6719 6.30078C17.9531 6.03125 18.3398 5.89062 18.8086 5.89062C19.2773 5.89062 19.6523 6.03125 19.9336 6.30078C20.2148 6.58203 20.3555 6.93359 20.3555 7.36719C20.3555 7.8125 20.2031 8.17578 19.9219 8.44531C19.6406 8.71484 19.2656 8.84375 18.7969 8.84375ZM28.5234 23.1641C26.7422 23.1523 25.3008 22.6016 24.2109 21.5117C23.1211 20.4219 22.582 18.9336 22.582 17.0352C22.582 16.25 22.6992 15.5 22.957 14.7969C23.2148 14.0938 23.5781 13.4609 24.0469 12.9102C24.5156 12.3711 25.1133 11.9375 25.8398 11.6094C26.5664 11.293 27.3633 11.1289 28.2539 11.1289C29.1445 11.1289 29.9414 11.2812 30.6328 11.5859C31.3242 11.8906 31.875 12.3125 32.2969 12.8398C32.7188 13.3672 33.0352 13.9648 33.2578 14.6211C33.4688 15.2773 33.5859 15.9922 33.6094 16.7656C33.6094 17.0469 33.5391 17.2812 33.4219 17.4688C33.3047 17.6562 33.1055 17.7383 32.8477 17.7383H25.1602C25.207 18.9805 25.5469 19.9062 26.1797 20.4922C26.8125 21.0781 27.6562 21.3828 28.7109 21.3828C29.6836 21.3828 30.7734 20.9609 31.9688 20.1172C32.1094 20.0234 32.2617 19.9648 32.4141 19.9648C32.625 19.9648 32.8125 20.0586 32.9766 20.2344C33.1406 20.4219 33.2227 20.6211 33.2227 20.8555C33.2227 21.1602 33.0938 21.4062 32.8359 21.6172C31.6641 22.6484 30.2227 23.1641 28.5234 23.1641ZM25.1836 16.1914H31.3945C31.3242 15.2422 31.0312 14.4453 30.5391 13.8125C30.0352 13.1797 29.3086 12.8633 28.3594 12.8633C27.8672 12.8633 27.4219 12.9688 27.0234 13.1562C26.625 13.3555 26.2969 13.6133 26.0508 13.9297C25.793 14.2578 25.5938 14.6094 25.4531 14.9844C25.3125 15.3711 25.2188 15.7695 25.1836 16.1914ZM48.9961 23C48.1055 23 47.4844 22.4727 47.1328 21.418L44.4961 13.7422L41.8711 21.418C41.5078 22.4727 40.8867 23 40.0078 23C39.1875 23 38.6367 22.5312 38.3438 21.5703L35.4609 12.8047C35.4492 12.7695 35.4375 12.7344 35.4258 12.6992C35.4141 12.6758 35.4023 12.6406 35.4023 12.6055C35.4023 12.5703 35.3906 12.5352 35.3906 12.5C35.3906 12.4766 35.3906 12.4414 35.3906 12.4062C35.3906 12.0781 35.5078 11.8203 35.7539 11.6211C36 11.4219 36.2812 11.3164 36.6094 11.3164C36.7266 11.3164 36.832 11.3398 36.9492 11.3633C37.0547 11.3984 37.1602 11.4453 37.2539 11.5039C37.3477 11.5742 37.4414 11.6562 37.5234 11.7617C37.5938 11.8672 37.6523 11.9844 37.6992 12.1133L40.2305 20.3398L42.8438 12.6289C43.1484 11.7383 43.6992 11.293 44.4961 11.293C45.293 11.293 45.8438 11.7383 46.1484 12.6289L48.7734 20.3398L51.3047 12.1133C51.3867 11.8555 51.5273 11.6562 51.7266 11.5156C51.9258 11.3867 52.1484 11.3164 52.3945 11.3164C52.5938 11.3164 52.7812 11.3633 52.9688 11.4453C53.1562 11.5273 53.3086 11.6562 53.4258 11.8203C53.543 11.9961 53.6016 12.1836 53.6016 12.3945C53.6016 12.5352 53.5781 12.6641 53.5312 12.8047L50.6602 21.5703C50.3438 22.5312 49.793 23 48.9961 23ZM72.3047 22.4727C71.9648 22.4727 71.6484 22.3672 71.3438 22.1445C71.0391 21.9336 70.793 21.6172 70.6289 21.207L65.8828 9.96875V21.7461C65.8828 22.0508 65.7422 22.2969 65.4844 22.4609C65.2148 22.6367 64.8984 22.7188 64.5352 22.7188C64.1719 22.7188 63.8555 22.6367 63.5977 22.4609C63.3281 22.2969 63.1992 22.0508 63.1992 21.7461V8.53906C63.1992 8 63.4102 7.56641 63.8438 7.21484C64.2773 6.875 64.793 6.69922 65.3906 6.69922C65.8828 6.69922 66.3398 6.83984 66.7734 7.10938C67.1953 7.37891 67.5234 7.77734 67.7578 8.31641L72.3047 18.9453V22.4727ZM72.3164 22.4727V18.9453L76.8633 8.31641C77.0977 7.77734 77.4258 7.37891 77.8594 7.10938C78.2812 6.83984 78.75 6.69922 79.2422 6.69922C79.6172 6.69922 79.9805 6.78125 80.3086 6.92188C80.6367 7.07422 80.9062 7.29688 81.1172 7.57812C81.3281 7.85938 81.4336 8.1875 81.4336 8.53906V21.7461C81.4336 22.0508 81.293 22.2969 81.0352 22.4609C80.7656 22.6367 80.4492 22.7188 80.0859 22.7188C79.7227 22.7188 79.4062 22.6367 79.1484 22.4609C78.8789 22.2969 78.75 22.0508 78.75 21.7461V9.96875L73.9922 21.207C73.8281 21.6055 73.582 21.9219 73.2773 22.1445C72.9727 22.3672 72.6445 22.4727 72.3164 22.4727ZM90.6094 21.418C91.6992 21.418 92.5547 21.043 93.1641 20.293C93.7734 19.543 94.0781 18.5 94.0781 17.1641C94.0781 15.8281 93.7617 14.7734 93.1523 14.0117C92.543 13.25 91.6875 12.8633 90.6094 12.8633C89.5195 12.8633 88.6641 13.25 88.0547 14C87.4453 14.7617 87.1406 15.8164 87.1406 17.1641C87.1406 18.5 87.4453 19.543 88.0547 20.293C88.6641 21.043 89.5195 21.418 90.6094 21.418ZM90.6094 23.1641C89.625 23.1641 88.7344 23 87.9609 22.6602C87.1758 22.332 86.543 21.875 86.0625 21.3125C85.582 20.75 85.2188 20.1055 84.9727 19.4023C84.7148 18.6992 84.5977 17.9492 84.5977 17.1641C84.5977 16.3672 84.7148 15.6172 84.9727 14.9023C85.2305 14.1875 85.5938 13.543 86.0742 12.9805C86.5547 12.418 87.1875 11.9609 87.9727 11.6328C88.7461 11.3047 89.625 11.1289 90.6094 11.1289C91.5703 11.1289 92.4492 11.293 93.2227 11.6211C93.9961 11.9492 94.6172 12.3828 95.1094 12.9453C95.6016 13.5078 95.9766 14.1523 96.2344 14.8672C96.4922 15.5938 96.6211 16.3555 96.6211 17.1641C96.6211 17.7852 96.5391 18.3828 96.3867 18.957C96.2344 19.5312 96 20.0703 95.6719 20.5859C95.3438 21.1016 94.957 21.5586 94.4883 21.9336C94.0195 22.3086 93.457 22.6133 92.8008 22.8359C92.1328 23.0586 91.4062 23.1641 90.6094 23.1641ZM100.477 23C100.125 23 99.832 22.8945 99.5859 22.6836C99.3281 22.4727 99.2109 22.1797 99.2109 21.7812V12.4766C99.2109 12.2188 99.2695 12.0078 99.3984 11.8203C99.5273 11.6328 99.6914 11.5039 99.8906 11.4219C100.078 11.3398 100.289 11.293 100.523 11.293C100.875 11.293 101.168 11.3984 101.426 11.5859C101.672 11.7852 101.789 12.0547 101.789 12.3945L101.754 13.8477C101.953 13.1211 102.352 12.5117 102.961 12.0195C103.57 11.5273 104.25 11.2812 105.012 11.2812C105.164 11.2812 105.305 11.3164 105.434 11.375C105.551 11.4453 105.656 11.5273 105.738 11.6328C105.809 11.7383 105.867 11.8555 105.914 11.9844C105.949 12.125 105.973 12.2539 105.973 12.3945C105.973 12.6758 105.891 12.9219 105.75 13.1211C105.598 13.332 105.398 13.4258 105.141 13.4258C104.648 13.4258 104.203 13.4727 103.828 13.5547C103.453 13.6484 103.102 13.7891 102.785 14C102.457 14.2109 102.211 14.5039 102.047 14.8906C101.871 15.2891 101.789 15.7578 101.789 16.3203V21.7812C101.789 22.168 101.648 22.4727 101.391 22.6836C101.133 22.8945 100.828 23 100.477 23ZM113.297 23.1641C111.516 23.1523 110.074 22.6016 108.984 21.5117C107.895 20.4219 107.355 18.9336 107.355 17.0352C107.355 16.25 107.473 15.5 107.73 14.7969C107.988 14.0938 108.352 13.4609 108.82 12.9102C109.289 12.3711 109.887 11.9375 110.613 11.6094C111.34 11.293 112.137 11.1289 113.027 11.1289C113.918 11.1289 114.715 11.2812 115.406 11.5859C116.098 11.8906 116.648 12.3125 117.07 12.8398C117.492 13.3672 117.809 13.9648 118.031 14.6211C118.242 15.2773 118.359 15.9922 118.383 16.7656C118.383 17.0469 118.312 17.2812 118.195 17.4688C118.078 17.6562 117.879 17.7383 117.621 17.7383H109.934C109.98 18.9805 110.32 19.9062 110.953 20.4922C111.586 21.0781 112.43 21.3828 113.484 21.3828C114.457 21.3828 115.547 20.9609 116.742 20.1172C116.883 20.0234 117.035 19.9648 117.188 19.9648C117.398 19.9648 117.586 20.0586 117.75 20.2344C117.914 20.4219 117.996 20.6211 117.996 20.8555C117.996 21.1602 117.867 21.4062 117.609 21.6172C116.438 22.6484 114.996 23.1641 113.297 23.1641ZM109.957 16.1914H116.168C116.098 15.2422 115.805 14.4453 115.312 13.8125C114.809 13.1797 114.082 12.8633 113.133 12.8633C112.641 12.8633 112.195 12.9688 111.797 13.1562C111.398 13.3555 111.07 13.6133 110.824 13.9297C110.566 14.2578 110.367 14.6094 110.227 14.9844C110.086 15.3711 109.992 15.7695 109.957 16.1914Z" fill="#333333"/>
<path d="M146.804 15.539L137.638 6.20054C137.507 6.06703 137.356 6 137.185 6C137.015 6 136.864 6.06703 136.733 6.20054L135.75 7.20252C135.619 7.33609 135.553 7.48953 135.553 7.66346C135.553 7.83739 135.619 7.99083 135.75 8.12441L143.48 16.0001L135.75 23.8761C135.619 24.0097 135.553 24.1634 135.553 24.3368C135.553 24.5107 135.619 24.6644 135.75 24.798L136.733 25.7997C136.864 25.9334 137.015 26 137.185 26C137.356 26 137.507 25.9332 137.638 25.7997L146.804 16.4612C146.935 16.3277 147 16.1739 147 16.0002C147 15.8266 146.935 15.6728 146.804 15.539Z" fill="#1991EB"/>
<path d="M139.447 16.0002C139.447 15.8266 139.382 15.6728 139.25 15.539L130.085 6.20054C129.954 6.06703 129.803 6 129.633 6C129.462 6 129.311 6.06703 129.18 6.20054L128.197 7.20259C128.065 7.33616 128 7.4896 128 7.66353C128 7.83747 128.065 7.9909 128.197 8.12448L135.927 16.0002L128.197 23.8761C128.065 24.0097 128 24.1634 128 24.3368C128 24.5107 128.065 24.6644 128.197 24.798L129.18 25.7997C129.311 25.9334 129.462 26 129.632 26C129.803 26 129.954 25.9332 130.085 25.7997L139.25 16.4612C139.382 16.3277 139.447 16.1739 139.447 16.0002Z" fill="#1991EB"/>
</svg>
